<?xml version="1.0" encoding="UTF-8" standalone="no"?>
<!-- Created with Inkscape (http://www.inkscape.org/) -->

<svg
   width="128"
   height="128"
   viewBox="0 0 33.866664 33.866666"
   version="1.1"
   id="svg8"
   inkscape:version="1.4 (e7c3feb100, 2024-10-09)"
   sodipodi:docname="tui_icon_negative.svg"
   xml:space="preserve"
   inkscape:export-filename="mako_foreground.png"
   inkscape:export-xdpi="600"
   inkscape:export-ydpi="600"
   xmlns:inkscape="http://www.inkscape.org/namespaces/inkscape"
   xmlns:sodipodi="http://sodipodi.sourceforge.net/DTD/sodipodi-0.dtd"
   xmlns="http://www.w3.org/2000/svg"
   xmlns:svg="http://www.w3.org/2000/svg"
   xmlns:rdf="http://www.w3.org/1999/02/22-rdf-syntax-ns#"
   xmlns:cc="http://creativecommons.org/ns#"
   xmlns:dc="http://purl.org/dc/elements/1.1/"><defs
     id="defs2" /><sodipodi:namedview
     id="base"
     pagecolor="#ffffff"
     bordercolor="#666666"
     borderopacity="1.0"
     inkscape:pageopacity="0.0"
     inkscape:pageshadow="2"
     inkscape:zoom="3.6203867"
     inkscape:cx="70.020145"
     inkscape:cy="32.31699"
     inkscape:document-units="px"
     inkscape:current-layer="layer1"
     showgrid="true"
     units="px"
     borderlayer="true"
     inkscape:showpageshadow="false"
     inkscape:window-width="1180"
     inkscape:window-height="1000"
     inkscape:window-x="0"
     inkscape:window-y="0"
     inkscape:window-maximized="0"
     inkscape:snap-bbox="true"
     inkscape:object-nodes="false"
     inkscape:snap-others="false"
     fit-margin-top="0"
     fit-margin-left="0"
     fit-margin-right="0"
     fit-margin-bottom="0"
     inkscape:pagecheckerboard="false"
     inkscape:snap-bbox-midpoints="false"
     inkscape:snap-bbox-edge-midpoints="false"
     inkscape:bbox-nodes="true"
     inkscape:deskcolor="#d1d1d1"
     showguides="false"><inkscape:grid
       type="xygrid"
       id="grid815"
       spacingx="0.52916667"
       spacingy="0.52916667"
       empspacing="1"
       dotted="false"
       originx="0"
       originy="0"
       units="px" /></sodipodi:namedview><metadata
     id="metadata5"><rdf:RDF><cc:Work
         rdf:about=""><dc:format>image/svg+xml</dc:format><dc:type
           rdf:resource="http://purl.org/dc/dcmitype/StillImage" /></cc:Work></rdf:RDF></metadata><g
     inkscape:groupmode="layer"
     id="layer1"
     inkscape:label="Layer 1"><path
       id="rect469"
       style="fill:#7b96ae;fill-opacity:1;stroke:none;stroke-width:2.83718;stroke-linecap:square"
       d="M 13.543223,9.934564 V 10.28347 H 13.194316 12.84541 v 0.348905 h -0.348906 v 0.348906 h -0.348905 v 0.348906 0.348907 0.348905 h -0.348906 v 0.348906 H 11.449787 11.10088 v 0.348906 h -0.348905 -0.348906 v 0.348906 h 0.348906 0.348905 v 0.348906 h 0.348907 v 0.348906 0.348905 H 11.10088 10.751975 10.403069 v 0.348907 h -0.348906 v 0.348906 0.348905 0.348906 h 0.348906 v 0.348907 h 0.348906 v 0.348906 0.348905 0.348906 0.348906 0.348907 0.348904 h 0.348905 v 0.348907 0.348906 0.348906 h 0.348907 v 0.348906 0.348906 h 0.348906 v 0.348905 h 0.348906 v 0.348907 h 0.348905 v 0.348906 h 0.348906 v 0.348905 h 0.348906 0.348907 v 0.348906 h 0.348905 0.348906 v 0.348906 h 0.348906 0.348907 v 0.348906 H 14.58994 v 0.348906 h -0.348906 v 0.348906 h -0.348906 v 0.348906 h -0.348905 v 0.348906 H 13.194316 12.84541 v 0.348905 0.348907 h 0.348906 0.348907 0.348905 0.348906 0.348906 V 23.8908 23.541895 h -0.348906 v -0.348906 h 0.348906 v -0.348906 h 0.348907 v -0.348906 h 0.348905 v -0.348906 h 0.348906 0.348906 0.348906 0.348906 0.348905 0.348906 0.348907 v 0.348906 h -0.348907 v 0.348906 0.348906 H 17.032281 V 23.541895 23.8908 H 16.683376 16.33447 v 0.348907 0.348906 h 0.348906 0.348905 0.348906 0.348907 0.348905 V 24.239707 23.8908 h -0.348905 v -0.348905 -0.348906 h 0.348905 v -0.348906 -0.348906 h 0.348906 v -0.348906 -0.348906 -0.348906 h 0.348906 0.348906 0.348906 v -0.348906 h 0.348906 v -0.348905 h 0.348906 v -0.348906 h 0.348906 0.348906 0.348906 0.348906 0.348905 0.348907 v 0.348906 h 0.348906 0.348905 0.348906 0.348907 0.348905 v 0.348905 h 0.348906 0.348906 0.348906 0.348906 V 20.750648 H 25.75493 V 20.052835 H 25.406024 V 19.70393 H 25.057118 24.708212 V 19.355024 H 24.359306 24.0104 v -0.348906 h -0.348905 v -0.348906 h -0.348907 -0.348906 v -0.348906 h 0.348906 V 17.261588 H 22.963682 V 16.912682 H 22.614777 V 16.563776 H 22.265871 V 16.214871 H 21.916964 V 15.865965 H 21.568059 V 15.517058 H 21.219153 V 15.168152 H 20.870247 V 14.819247 H 20.521341 V 14.470341 H 20.172435 V 14.121434 H 19.823529 V 13.772529 H 19.474623 V 13.423623 H 19.125717 V 13.074717 H 18.776811 V 12.725811 H 18.427905 V 12.376905 12.027999 H 18.078999 V 11.679094 H 17.730094 V 11.330187 H 17.381187 V 10.981281 H 17.032281 V 10.632375 H 16.683376 V 10.28347 H 16.33447 15.985564 V 9.934564 H 15.636658 15.287752 14.938847 14.58994 14.241034 13.892128 Z m 0.697811,2.093435 h 0.348906 0.348907 v 0.348906 0.348906 0.348906 H 14.58994 14.241034 v -0.348906 -0.348906 z" /></g></svg>
