<?xml version="1.0" encoding="UTF-8" standalone="no"?>
<!-- Created with Inkscape (http://www.inkscape.org/) -->

<svg
   width="128"
   height="128"
   viewBox="0 0 33.866664 33.866666"
   version="1.1"
   id="svg8"
   inkscape:version="1.4 (e7c3feb100, 2024-10-09)"
   sodipodi:docname="tui_icon_fill_flat.svg"
   xml:space="preserve"
   inkscape:export-filename="mako_foreground.png"
   inkscape:export-xdpi="600"
   inkscape:export-ydpi="600"
   xmlns:inkscape="http://www.inkscape.org/namespaces/inkscape"
   xmlns:sodipodi="http://sodipodi.sourceforge.net/DTD/sodipodi-0.dtd"
   xmlns="http://www.w3.org/2000/svg"
   xmlns:svg="http://www.w3.org/2000/svg"
   xmlns:rdf="http://www.w3.org/1999/02/22-rdf-syntax-ns#"
   xmlns:cc="http://creativecommons.org/ns#"
   xmlns:dc="http://purl.org/dc/elements/1.1/"><defs
     id="defs2" /><sodipodi:namedview
     id="base"
     pagecolor="#ffffff"
     bordercolor="#666666"
     borderopacity="1.0"
     inkscape:pageopacity="0.0"
     inkscape:pageshadow="2"
     inkscape:zoom="2.56"
     inkscape:cx="32.03125"
     inkscape:cy="47.265625"
     inkscape:document-units="px"
     inkscape:current-layer="layer1"
     showgrid="true"
     units="px"
     borderlayer="true"
     inkscape:showpageshadow="false"
     inkscape:window-width="1180"
     inkscape:window-height="1000"
     inkscape:window-x="0"
     inkscape:window-y="0"
     inkscape:window-maximized="0"
     inkscape:snap-bbox="true"
     inkscape:object-nodes="false"
     inkscape:snap-others="false"
     fit-margin-top="0"
     fit-margin-left="0"
     fit-margin-right="0"
     fit-margin-bottom="0"
     inkscape:pagecheckerboard="false"
     inkscape:snap-bbox-midpoints="false"
     inkscape:snap-bbox-edge-midpoints="false"
     inkscape:bbox-nodes="true"
     inkscape:deskcolor="#d1d1d1"
     showguides="false"><inkscape:grid
       type="xygrid"
       id="grid815"
       spacingx="0.52916667"
       spacingy="0.52916667"
       empspacing="1"
       dotted="false"
       originx="0"
       originy="0"
       units="px" /></sodipodi:namedview><metadata
     id="metadata5"><rdf:RDF><cc:Work
         rdf:about=""><dc:format>image/svg+xml</dc:format><dc:type
           rdf:resource="http://purl.org/dc/dcmitype/StillImage" /></cc:Work></rdf:RDF></metadata><g
     inkscape:groupmode="layer"
     id="layer1"
     inkscape:label="Layer 1"><rect
       style="display:inline;fill:#89c5bd;fill-opacity:1;stroke-width:7.71075;stroke-linecap:round;stroke-linejoin:round"
       id="rect612"
       width="33.866669"
       height="33.866669"
       x="0"
       y="0" /><path
       id="rect973"
       style="fill:#ae877a;fill-opacity:1;stroke:none;stroke-width:4.303;stroke-linecap:square"
       d="M 13.229166 24.870832 L 13.229166 25.399999 L 13.758333 25.399999 L 13.758333 24.870832 L 13.229166 24.870832 z M 13.229166 25.399999 L 12.699999 25.399999 L 12.699999 25.929165 L 13.229166 25.929165 L 13.229166 25.399999 z M 12.699999 25.929165 L 12.170833 25.929165 L 12.170833 26.458332 L 12.699999 26.458332 L 12.699999 25.929165 z M 12.170833 26.458332 L 11.641666 26.458332 L 11.641666 26.987499 L 11.112499 26.987499 L 10.583333 26.987499 L 10.583333 27.516665 L 11.112499 27.516665 L 11.641666 27.516665 L 12.170833 27.516665 L 12.699999 27.516665 L 12.699999 26.987499 L 12.170833 26.987499 L 12.170833 26.458332 z M 17.991666 24.870832 L 17.991666 25.399999 L 18.520832 25.399999 L 18.520832 24.870832 L 17.991666 24.870832 z M 17.991666 25.399999 L 17.462499 25.399999 L 17.462499 25.929165 L 17.462499 26.458332 L 17.991666 26.458332 L 17.991666 25.929165 L 17.991666 25.399999 z M 17.462499 26.458332 L 16.933332 26.458332 L 16.933332 26.987499 L 16.933332 27.516665 L 16.404166 27.516665 L 15.874999 27.516665 L 15.874999 28.045832 L 16.404166 28.045832 L 16.933332 28.045832 L 17.462499 28.045832 L 17.991666 28.045832 L 17.991666 27.516665 L 17.462499 27.516665 L 17.462499 26.987499 L 17.462499 26.458332 z " /><path
       id="path1142"
       style="fill:#375a79;fill-opacity:1;stroke:none;stroke-width:4.303;stroke-linecap:square"
       d="M 11.641666 6.3499997 L 11.641666 6.8791663 L 11.112499 6.8791663 L 10.583333 6.8791663 L 10.583333 7.408333 L 10.054166 7.408333 L 10.054166 7.9374996 L 9.5249995 7.9374996 L 9.5249995 8.4666662 L 9.5249995 8.9958329 L 9.5249995 9.5249995 L 8.9958329 9.5249995 L 8.9958329 10.054166 L 8.9958329 10.583333 L 8.9958329 11.112499 L 8.9958329 11.641666 L 8.4666662 11.641666 L 8.4666662 12.170833 L 8.4666662 12.699999 L 8.9958329 12.699999 L 8.9958329 13.229166 L 8.4666662 13.229166 L 7.9374996 13.229166 L 7.9374996 13.758333 L 7.9374996 14.287499 L 7.9374996 14.816666 L 7.9374996 15.345833 L 7.408333 15.345833 L 7.408333 15.874999 L 7.408333 16.404166 L 7.408333 16.933332 L 7.408333 17.462499 L 7.408333 17.991666 L 7.408333 18.520832 L 7.9374996 18.520832 L 7.9374996 19.049999 L 7.9374996 19.579166 L 7.9374996 20.108332 L 8.4666662 20.108332 L 8.4666662 20.637499 L 8.4666662 21.166666 L 8.9958329 21.166666 L 8.9958329 21.695832 L 9.5249995 21.695832 L 9.5249995 22.224999 L 10.054166 22.224999 L 10.054166 22.754166 L 10.583333 22.754166 L 10.583333 23.283332 L 11.112499 23.283332 L 11.641666 23.283332 L 11.641666 23.812499 L 12.170833 23.812499 L 12.699999 23.812499 L 12.699999 24.341665 L 13.229166 24.341665 L 13.758333 24.341665 L 13.758333 24.870832 L 14.287499 24.870832 L 14.816666 24.870832 L 15.345833 24.870832 L 15.874999 24.870832 L 16.404166 24.870832 L 16.933332 24.870832 L 17.462499 24.870832 L 17.991666 24.870832 L 18.520832 24.870832 L 18.520832 24.341665 L 19.049999 24.341665 L 19.049999 23.812499 L 19.579166 23.812499 L 20.108332 23.812499 L 20.637499 23.812499 L 20.637499 23.283332 L 21.166666 23.283332 L 21.166666 22.754166 L 21.695832 22.754166 L 21.695832 22.224999 L 22.224999 22.224999 L 22.754166 22.224999 L 23.283332 22.224999 L 23.812499 22.224999 L 24.341665 22.224999 L 24.870832 22.224999 L 24.870832 22.754166 L 25.399999 22.754166 L 25.929165 22.754166 L 26.458332 22.754166 L 26.987499 22.754166 L 27.516665 22.754166 L 27.516665 23.283332 L 28.045832 23.283332 L 28.574999 23.283332 L 29.104165 23.283332 L 29.633332 23.283332 L 29.633332 22.754166 L 30.162499 22.754166 L 30.162499 21.695832 L 29.633332 21.695832 L 29.633332 21.166666 L 29.104165 21.166666 L 28.574999 21.166666 L 28.574999 20.637499 L 28.045832 20.637499 L 27.516665 20.637499 L 27.516665 20.108332 L 26.987499 20.108332 L 26.987499 19.579166 L 26.458332 19.579166 L 25.929165 19.579166 L 25.929165 19.049999 L 26.458332 19.049999 L 26.458332 18.520832 L 26.458332 17.462499 L 25.929165 17.462499 L 25.929165 16.933332 L 25.399999 16.933332 L 25.399999 16.404166 L 24.870832 16.404166 L 24.870832 15.874999 L 24.341665 15.874999 L 24.341665 15.345833 L 23.812499 15.345833 L 23.812499 14.816666 L 23.283332 14.816666 L 23.283332 14.287499 L 22.754166 14.287499 L 22.754166 13.758333 L 22.224999 13.758333 L 22.224999 13.229166 L 21.695832 13.229166 L 21.695832 12.699999 L 21.166666 12.699999 L 21.166666 12.170833 L 20.637499 12.170833 L 20.637499 11.641666 L 20.108332 11.641666 L 20.108332 11.112499 L 19.579166 11.112499 L 19.579166 10.583333 L 19.049999 10.583333 L 19.049999 10.054166 L 19.049999 9.5249995 L 18.520832 9.5249995 L 18.520832 8.9958329 L 17.991666 8.9958329 L 17.991666 8.4666662 L 17.462499 8.4666662 L 17.462499 7.9374996 L 16.933332 7.9374996 L 16.933332 7.408333 L 16.404166 7.408333 L 16.404166 6.8791663 L 15.874999 6.8791663 L 15.345833 6.8791663 L 15.345833 6.3499997 L 14.816666 6.3499997 L 14.287499 6.3499997 L 13.758333 6.3499997 L 13.229166 6.3499997 L 12.699999 6.3499997 L 12.170833 6.3499997 L 11.641666 6.3499997 z " /><path
       id="rect991"
       style="fill:#4d547c;fill-opacity:1;stroke:none;stroke-width:4.303;stroke-linecap:square"
       d="M 7.9374996 10.054166 L 7.9374996 10.583333 L 7.408333 10.583333 L 6.8791663 10.583333 L 6.8791663 11.112499 L 7.408333 11.112499 L 7.9374996 11.112499 L 7.9374996 11.641666 L 8.4666662 11.641666 L 8.9958329 11.641666 L 8.9958329 11.112499 L 8.9958329 10.583333 L 8.9958329 10.054166 L 8.4666662 10.054166 L 7.9374996 10.054166 z " /><path
       id="rect999"
       style="fill:#3b2610;fill-opacity:1;stroke-width:7.71075;stroke-linecap:round;stroke-linejoin:round"
       d="M 12.699999 9.5249995 L 12.699999 10.054166 L 12.699999 10.583333 L 12.699999 11.112499 L 13.229166 11.112499 L 13.758333 11.112499 L 13.758333 10.583333 L 13.758333 10.054166 L 13.758333 9.5249995 L 13.229166 9.5249995 L 12.699999 9.5249995 z " /><rect
       style="fill:#d2e2e5;fill-opacity:1;stroke-width:7.71075;stroke-linecap:round;stroke-linejoin:round"
       id="rect1003"
       width="0.52916658"
       height="0.52916652"
       x="13.229168"
       y="10.054167" /><path
       id="rect926"
       style="fill:#23405a;fill-opacity:1;stroke:none;stroke-width:4.303;stroke-linecap:square"
       d="M 14.816666 14.816666 L 14.816666 15.345833 L 14.816666 15.874999 L 15.345833 15.874999 L 15.345833 16.404166 L 15.874999 16.404166 L 15.874999 16.933332 L 16.404166 16.933332 L 16.404166 17.462499 L 16.933332 17.462499 L 16.933332 17.991666 L 17.462499 17.991666 L 17.462499 18.520832 L 17.991666 18.520832 L 18.520832 18.520832 L 19.049999 18.520832 L 19.049999 19.049999 L 19.579166 19.049999 L 20.108332 19.049999 L 20.637499 19.049999 L 20.637499 19.579166 L 21.166666 19.579166 L 21.695832 19.579166 L 22.224999 19.579166 L 22.754166 19.579166 L 23.283332 19.579166 L 23.812499 19.579166 L 24.341665 19.579166 L 24.870832 19.579166 L 25.399999 19.579166 L 25.929165 19.579166 L 25.929165 19.049999 L 25.399999 19.049999 L 24.870832 19.049999 L 24.341665 19.049999 L 23.812499 19.049999 L 23.283332 19.049999 L 22.754166 19.049999 L 22.224999 19.049999 L 22.224999 18.520832 L 21.695832 18.520832 L 21.166666 18.520832 L 20.637499 18.520832 L 20.637499 17.991666 L 20.108332 17.991666 L 19.579166 17.991666 L 19.049999 17.991666 L 19.049999 17.462499 L 18.520832 17.462499 L 17.991666 17.462499 L 17.462499 17.462499 L 17.462499 16.933332 L 16.933332 16.933332 L 16.933332 16.404166 L 16.404166 16.404166 L 16.404166 15.874999 L 15.874999 15.874999 L 15.874999 15.345833 L 15.345833 15.345833 L 15.345833 14.816666 L 14.816666 14.816666 z " /><rect
       style="fill:#a3bfd1;fill-opacity:1;stroke:none;stroke-width:4.303;stroke-linecap:square"
       id="rect1005"
       width="0.5291667"
       height="0.5291667"
       x="7.9375081"
       y="12.699999" /><rect
       style="fill:#a3bfd1;fill-opacity:1;stroke:none;stroke-width:4.303;stroke-linecap:square"
       id="rect1006"
       width="0.5291667"
       height="0.5291667"
       x="7.4083414"
       y="12.699999" /><rect
       style="fill:#a3bfd1;fill-opacity:1;stroke:none;stroke-width:4.303;stroke-linecap:square"
       id="rect1014"
       width="0.5291667"
       height="0.5291667"
       x="6.350008"
       y="13.758331" /><rect
       style="fill:#a3bfd1;fill-opacity:1;stroke:none;stroke-width:4.303;stroke-linecap:square"
       id="rect1015"
       width="0.5291667"
       height="0.5291667"
       x="6.350008"
       y="13.229165" /><rect
       style="fill:#819eb1;fill-opacity:1;stroke:none;stroke-width:4.303;stroke-linecap:square"
       id="rect1016"
       width="0.5291667"
       height="0.5291667"
       x="6.8791747"
       y="12.699999" /><path
       id="rect924"
       style="fill:#35717b;fill-opacity:1;stroke:none;stroke-width:4.303;stroke-linecap:square"
       d="M 22.224999 14.287499 L 22.224999 14.816666 L 22.224999 15.345833 L 22.754166 15.345833 L 23.283332 15.345833 L 23.283332 15.874999 L 23.283332 16.404166 L 23.812499 16.404166 L 23.812499 16.933332 L 24.341665 16.933332 L 24.341665 17.462499 L 24.870832 17.462499 L 24.870832 17.991666 L 24.341665 17.991666 L 23.812499 17.991666 L 23.283332 17.991666 L 22.754166 17.991666 L 22.224999 17.991666 L 22.224999 17.462499 L 21.695832 17.462499 L 21.166666 17.462499 L 20.637499 17.462499 L 20.637499 17.991666 L 20.637499 18.520832 L 21.166666 18.520832 L 21.695832 18.520832 L 22.224999 18.520832 L 22.224999 19.049999 L 22.754166 19.049999 L 23.283332 19.049999 L 23.812499 19.049999 L 24.341665 19.049999 L 24.870832 19.049999 L 25.399999 19.049999 L 25.929165 19.049999 L 26.458332 19.049999 L 26.458332 18.520832 L 26.458332 17.991666 L 26.458332 17.462499 L 25.929165 17.462499 L 25.929165 16.933332 L 25.399999 16.933332 L 25.399999 16.404166 L 24.870832 16.404166 L 24.870832 15.874999 L 24.341665 15.874999 L 24.341665 15.345833 L 23.812499 15.345833 L 23.812499 14.816666 L 23.283332 14.816666 L 23.283332 14.287499 L 22.754166 14.287499 L 22.224999 14.287499 z " /><path
       id="rect1242"
       style="fill:#35717b;fill-opacity:1;stroke:none;stroke-width:4.303;stroke-linecap:square"
       d="M 24.341665 19.579166 L 24.341665 20.108332 L 24.870832 20.108332 L 25.399999 20.108332 L 25.929165 20.108332 L 25.929165 20.637499 L 26.458332 20.637499 L 26.987499 20.637499 L 26.987499 21.166666 L 26.987499 21.695832 L 26.458332 21.695832 L 25.929165 21.695832 L 25.399999 21.695832 L 25.399999 21.166666 L 24.870832 21.166666 L 24.341665 21.166666 L 23.812499 21.166666 L 23.283332 21.166666 L 22.754166 21.166666 L 22.224999 21.166666 L 21.695832 21.166666 L 21.695832 21.695832 L 21.695832 22.224999 L 22.224999 22.224999 L 22.754166 22.224999 L 23.283332 22.224999 L 23.812499 22.224999 L 24.341665 22.224999 L 24.870832 22.224999 L 24.870832 22.754166 L 25.399999 22.754166 L 25.929165 22.754166 L 26.458332 22.754166 L 26.987499 22.754166 L 27.516665 22.754166 L 27.516665 23.283332 L 28.045832 23.283332 L 28.574999 23.283332 L 29.104165 23.283332 L 29.633332 23.283332 L 29.633332 22.754166 L 30.162499 22.754166 L 30.162499 22.224999 L 30.162499 21.695832 L 29.633332 21.695832 L 29.633332 21.166666 L 29.104165 21.166666 L 28.574999 21.166666 L 28.574999 20.637499 L 28.045832 20.637499 L 27.516665 20.637499 L 27.516665 20.108332 L 26.987499 20.108332 L 26.987499 19.579166 L 26.458332 19.579166 L 25.929165 19.579166 L 25.399999 19.579166 L 24.870832 19.579166 L 24.341665 19.579166 z " /><path
       id="rect469"
       style="fill:#7b96ae;fill-opacity:1;stroke:none;stroke-width:4.303;stroke-linecap:square"
       d="M 17.991666 10.583333 L 17.991666 11.112499 L 17.462499 11.112499 L 16.933332 11.112499 L 16.933332 11.641666 L 16.404166 11.641666 L 16.404166 12.170833 L 15.874999 12.170833 L 15.874999 12.699999 L 15.345833 12.699999 L 14.816666 12.699999 L 14.816666 13.229166 L 14.287499 13.229166 L 13.758333 13.229166 L 13.229166 13.229166 L 12.699999 13.229166 L 12.170833 13.229166 L 11.641666 13.229166 L 11.112499 13.229166 L 10.583333 13.229166 L 10.054166 13.229166 L 9.5249995 13.229166 L 9.5249995 12.699999 L 8.9958329 12.699999 L 8.4666662 12.699999 L 8.4666662 13.229166 L 8.9958329 13.229166 L 8.9958329 13.758333 L 9.5249995 13.758333 L 10.054166 13.758333 L 10.054166 14.287499 L 10.583333 14.287499 L 11.112499 14.287499 L 11.641666 14.287499 L 12.170833 14.287499 L 12.699999 14.287499 L 13.229166 14.287499 L 13.758333 14.287499 L 14.287499 14.287499 L 14.816666 14.287499 L 15.345833 14.287499 L 15.345833 13.758333 L 15.874999 13.758333 L 15.874999 13.229166 L 16.404166 13.229166 L 16.404166 12.699999 L 16.933332 12.699999 L 17.462499 12.699999 L 17.462499 12.170833 L 17.991666 12.170833 L 18.520832 12.170833 L 18.520832 11.641666 L 19.049999 11.641666 L 19.579166 11.641666 L 19.579166 11.112499 L 19.579166 10.583333 L 19.049999 10.583333 L 18.520832 10.583333 L 17.991666 10.583333 z " /><path
       id="rect1314"
       style="fill:#a3bfd1;fill-opacity:1;stroke:none;stroke-width:4.303;stroke-linecap:square"
       d="M 6.8791663 12.699999 L 6.8791663 13.229166 L 6.3499997 13.229166 L 6.3499997 13.758333 L 6.3499997 14.287499 L 6.3499997 14.816666 L 6.8791663 14.816666 L 6.8791663 15.345833 L 7.408333 15.345833 L 7.9374996 15.345833 L 7.9374996 14.816666 L 7.9374996 14.287499 L 8.4666662 14.287499 L 8.4666662 13.758333 L 8.4666662 13.229166 L 8.4666662 12.699999 L 7.9374996 12.699999 L 7.408333 12.699999 L 6.8791663 12.699999 z " /><path
       id="rect1007"
       style="fill:#a6c6dc;fill-opacity:1;stroke:none;stroke-width:4.303;stroke-linecap:square"
       d="M 6.8791663 13.229166 L 6.8791663 13.758333 L 6.8791663 14.287499 L 6.8791663 14.816666 L 7.408333 14.816666 L 7.408333 14.287499 L 7.9374996 14.287499 L 7.9374996 13.758333 L 8.4666662 13.758333 L 8.4666662 13.229166 L 7.9374996 13.229166 L 7.408333 13.229166 L 6.8791663 13.229166 z " /><path
       id="rect1306"
       style="fill:#b6cad6;fill-opacity:1;stroke:none;stroke-width:4.303;stroke-linecap:square"
       d="M 6.8791663 12.699999 L 6.8791663 13.229166 L 7.408333 13.229166 L 7.9374996 13.229166 L 8.4666662 13.229166 L 8.4666662 12.699999 L 7.9374996 12.699999 L 7.408333 12.699999 L 6.8791663 12.699999 z M 6.8791663 13.229166 L 6.3499997 13.229166 L 6.3499997 13.758333 L 6.3499997 14.287499 L 6.3499997 14.816666 L 6.8791663 14.816666 L 6.8791663 14.287499 L 6.8791663 13.758333 L 6.8791663 13.229166 z " /></g></svg>
