<?xml version="1.0" encoding="UTF-8" standalone="no"?>
<!-- Created with Inkscape (http://www.inkscape.org/) -->

<svg
   width="128"
   height="128"
   viewBox="0 0 33.866664 33.866666"
   version="1.1"
   id="svg8"
   inkscape:version="1.4 (e7c3feb100, 2024-10-09)"
   sodipodi:docname="tui_icon_negative_edit.svg"
   xml:space="preserve"
   inkscape:export-filename="mako_foreground.png"
   inkscape:export-xdpi="600"
   inkscape:export-ydpi="600"
   xmlns:inkscape="http://www.inkscape.org/namespaces/inkscape"
   xmlns:sodipodi="http://sodipodi.sourceforge.net/DTD/sodipodi-0.dtd"
   xmlns="http://www.w3.org/2000/svg"
   xmlns:svg="http://www.w3.org/2000/svg"
   xmlns:rdf="http://www.w3.org/1999/02/22-rdf-syntax-ns#"
   xmlns:cc="http://creativecommons.org/ns#"
   xmlns:dc="http://purl.org/dc/elements/1.1/"><defs
     id="defs2" /><sodipodi:namedview
     id="base"
     pagecolor="#ffffff"
     bordercolor="#666666"
     borderopacity="1.0"
     inkscape:pageopacity="0.0"
     inkscape:pageshadow="2"
     inkscape:zoom="3.6203867"
     inkscape:cx="73.749028"
     inkscape:cy="96.398542"
     inkscape:document-units="px"
     inkscape:current-layer="layer1"
     showgrid="true"
     units="px"
     borderlayer="true"
     inkscape:showpageshadow="false"
     inkscape:window-width="1180"
     inkscape:window-height="1000"
     inkscape:window-x="0"
     inkscape:window-y="0"
     inkscape:window-maximized="0"
     inkscape:snap-bbox="true"
     inkscape:object-nodes="false"
     inkscape:snap-others="false"
     fit-margin-top="0"
     fit-margin-left="0"
     fit-margin-right="0"
     fit-margin-bottom="0"
     inkscape:pagecheckerboard="false"
     inkscape:snap-bbox-midpoints="false"
     inkscape:snap-bbox-edge-midpoints="false"
     inkscape:bbox-nodes="true"
     inkscape:deskcolor="#d1d1d1"
     showguides="false"><inkscape:grid
       type="xygrid"
       id="grid815"
       spacingx="0.52916667"
       spacingy="0.52916667"
       empspacing="1"
       dotted="false"
       originx="0"
       originy="0"
       units="px" /></sodipodi:namedview><metadata
     id="metadata5"><rdf:RDF><cc:Work
         rdf:about=""><dc:format>image/svg+xml</dc:format><dc:type
           rdf:resource="http://purl.org/dc/dcmitype/StillImage" /></cc:Work></rdf:RDF></metadata><g
     inkscape:groupmode="layer"
     id="layer1"
     inkscape:label="Layer 1"><path
       id="rect469"
       style="fill:#7b96ae;fill-opacity:1;stroke:none;stroke-width:4.303;stroke-linecap:square"
       d="M 11.641666 6.3499997 L 11.641666 6.8791663 L 11.112499 6.8791663 L 10.583333 6.8791663 L 10.583333 7.408333 L 10.054166 7.408333 L 10.054166 7.9374996 L 9.5249995 7.9374996 L 9.5249995 8.4666662 L 9.5249995 8.9958329 L 9.5249995 9.5249995 L 8.9958329 9.5249995 L 8.9958329 10.054166 L 8.4666662 10.054166 L 7.9374996 10.054166 L 7.9374996 10.583333 L 7.408333 10.583333 L 6.8791663 10.583333 L 6.8791663 11.112499 L 7.408333 11.112499 L 7.9374996 11.112499 L 7.9374996 11.641666 L 8.4666662 11.641666 L 8.4666662 12.170833 L 8.4666662 12.699999 L 7.9374996 12.699999 L 7.408333 12.699999 L 6.8791663 12.699999 L 6.8791663 13.229166 L 6.3499997 13.229166 L 6.3499997 13.758333 L 6.3499997 14.287499 L 6.3499997 14.816666 L 6.8791663 14.816666 L 6.8791663 15.345833 L 7.408333 15.345833 L 7.408333 15.874999 L 7.408333 16.404166 L 7.408333 16.933332 L 7.408333 17.462499 L 7.408333 17.991666 L 7.408333 18.520832 L 7.9374996 18.520832 L 7.9374996 19.049999 L 7.9374996 19.579166 L 7.9374996 20.108332 L 8.4666662 20.108332 L 8.4666662 20.637499 L 8.4666662 21.166666 L 8.9958329 21.166666 L 8.9958329 21.695832 L 9.5249995 21.695832 L 9.5249995 22.224999 L 10.054166 22.224999 L 10.054166 22.754166 L 10.583333 22.754166 L 10.583333 23.283332 L 11.112499 23.283332 L 11.641666 23.283332 L 11.641666 23.812499 L 12.170833 23.812499 L 12.699999 23.812499 L 12.699999 24.341665 L 13.229166 24.341665 L 13.758333 24.341665 L 13.758333 24.870832 L 13.229166 24.870832 L 13.229166 25.399999 L 12.699999 25.399999 L 12.699999 25.929165 L 12.170833 25.929165 L 12.170833 26.458332 L 11.641666 26.458332 L 11.641666 26.987499 L 11.112499 26.987499 L 10.583333 26.987499 L 10.583333 27.516665 L 10.583333 28.045832 L 11.112499 28.045832 L 11.641666 28.045832 L 12.170833 28.045832 L 12.699999 28.045832 L 13.229166 28.045832 L 13.229166 27.516665 L 13.229166 26.987499 L 12.699999 26.987499 L 12.699999 26.458332 L 13.229166 26.458332 L 13.229166 25.929165 L 13.758333 25.929165 L 13.758333 25.399999 L 14.287499 25.399999 L 14.287499 24.870832 L 14.816666 24.870832 L 15.345833 24.870832 L 15.874999 24.870832 L 16.404166 24.870832 L 16.933332 24.870832 L 17.462499 24.870832 L 17.991666 24.870832 L 17.991666 25.399999 L 17.462499 25.399999 L 17.462499 25.929165 L 17.462499 26.458332 L 16.933332 26.458332 L 16.933332 26.987499 L 16.933332 27.516665 L 16.404166 27.516665 L 15.874999 27.516665 L 15.874999 28.045832 L 15.874999 28.574999 L 16.404166 28.574999 L 16.933332 28.574999 L 17.462499 28.574999 L 17.991666 28.574999 L 18.520832 28.574999 L 18.520832 28.045832 L 18.520832 27.516665 L 17.991666 27.516665 L 17.991666 26.987499 L 17.991666 26.458332 L 18.520832 26.458332 L 18.520832 25.929165 L 18.520832 25.399999 L 19.049999 25.399999 L 19.049999 24.870832 L 19.049999 24.341665 L 19.049999 23.812499 L 19.579166 23.812499 L 20.108332 23.812499 L 20.637499 23.812499 L 20.637499 23.283332 L 21.166666 23.283332 L 21.166666 22.754166 L 21.695832 22.754166 L 21.695832 22.224999 L 22.224999 22.224999 L 22.754166 22.224999 L 23.283332 22.224999 L 23.812499 22.224999 L 24.341665 22.224999 L 24.870832 22.224999 L 24.870832 22.754166 L 25.399999 22.754166 L 25.929165 22.754166 L 26.458332 22.754166 L 26.987499 22.754166 L 27.516665 22.754166 L 27.516665 23.283332 L 28.045832 23.283332 L 28.574999 23.283332 L 29.104165 23.283332 L 29.633332 23.283332 L 29.633332 22.754166 L 30.162499 22.754166 L 30.162499 21.695832 L 29.633332 21.695832 L 29.633332 21.166666 L 29.104165 21.166666 L 28.574999 21.166666 L 28.574999 20.637499 L 28.045832 20.637499 L 27.516665 20.637499 L 27.516665 20.108332 L 26.987499 20.108332 L 26.987499 19.579166 L 26.458332 19.579166 L 25.929165 19.579166 L 25.929165 19.049999 L 26.458332 19.049999 L 26.458332 17.462499 L 25.929165 17.462499 L 25.929165 16.933332 L 25.399999 16.933332 L 25.399999 16.404166 L 24.870832 16.404166 L 24.870832 15.874999 L 24.341665 15.874999 L 24.341665 15.345833 L 23.812499 15.345833 L 23.812499 14.816666 L 23.283332 14.816666 L 23.283332 14.287499 L 22.754166 14.287499 L 22.754166 13.758333 L 22.224999 13.758333 L 22.224999 13.229166 L 21.695832 13.229166 L 21.695832 12.699999 L 21.166666 12.699999 L 21.166666 12.170833 L 20.637499 12.170833 L 20.637499 11.641666 L 20.108332 11.641666 L 20.108332 11.112499 L 19.579166 11.112499 L 19.579166 10.583333 L 19.049999 10.583333 L 19.049999 10.054166 L 19.049999 9.5249995 L 18.520832 9.5249995 L 18.520832 8.9958329 L 17.991666 8.9958329 L 17.991666 8.4666662 L 17.462499 8.4666662 L 17.462499 7.9374996 L 16.933332 7.9374996 L 16.933332 7.408333 L 16.404166 7.408333 L 16.404166 6.8791663 L 15.874999 6.8791663 L 15.345833 6.8791663 L 15.345833 6.3499997 L 14.816666 6.3499997 L 14.287499 6.3499997 L 13.758333 6.3499997 L 13.229166 6.3499997 L 12.699999 6.3499997 L 12.170833 6.3499997 L 11.641666 6.3499997 z M 12.699999 9.5249995 L 13.229166 9.5249995 L 13.758333 9.5249995 L 13.758333 10.054166 L 13.758333 10.583333 L 13.758333 11.112499 L 13.229166 11.112499 L 12.699999 11.112499 L 12.699999 10.583333 L 12.699999 10.054166 L 12.699999 9.5249995 z " /></g></svg>
