<svg xmlns="http://www.w3.org/2000/svg" xml:space="preserve" width="1200" height="630" viewBox="0 0 63.5 33.337">
  <defs>
    <pattern id="clouds" width="63.5" height="33.337" patternUnits="userSpaceOnUse">
      <path fill="#c8e2ff" d="M10.053 1.059v.529h-.529v.53h-.529v1.057H6.878v.53h-.529v.529H5.82v1.058H4.232v.53h-.529v.528h-.529v1.588H1.587v.53h-.53v.528H.528v.53h-.529v.529H-.53v.529h-.53v1.587h-.528v.53h-.53v2.116h.53v1.058h-.53v2.117h.53v.53h25.4v-.53h.529v-2.117h-.53v-.529h.53V13.23h-.53v-.53h-.529v-1.587h-.529v-.53h-.529v-.528h-1.587v-.53h-.53V6.88h-.529v-.53h-.529v-.529h-1.587V4.763h-.53v-.53h-.529v-.528h-.529V2.646h-.529v-.529h-.53v-.529H12.17v-.53zm37.571 0v.529h-.529v.53h-2.117v.528h-.529v.53h-.529v.529h-.53v.529h-.528v.529h-.53v.53h-2.116v.528h-.53v.53h-.529v2.116h-.529v2.117h.53v.529h-.53v.53h-2.116v.528h-.53v.53h-.529v2.116h.53v.53h.529v.528h.529v1.059h.529v.529h.53v.53h.528v.528H64.03v-2.116h-.53v-.53h-.529v-1.587h-.53v-.53h-.528v-.528h-2.117v-.53h-.53v-.529h-.528v-.529h-.53v-.529h-.529v-1.058h.53V7.938h-.53v-.53h-.529V5.821h-.529v-.529h-.53v-.529h-2.116V3.705h-.529v-.53h-.53v-.529H50.8v-.529h-.529v-.529h-.53v-.53z">
        <animateTransform attributeName="transform" attributeType="XML" calcMode="discrete" dur="2s" keySplines="0.25 0.1 0.25 1;0.25 0.1 0.25 1" keyTimes="0;0.5;1" repeatCount="indefinite" type="translate" values="0 0; 0.3 0; 0 0"/>
      </path>
      <path fill="#c8e2ff" d="M62.971 1.059v.529h.529v.53h.529v1.057h2.117v.53h.529v.529h.529v1.058h1.588v.53h.529v.528h.529v1.588h1.587v.53h.53v.528h.529v.53h.529v.529h.529v.529h.53v1.587h.528v.53h.53v2.116h-.53v1.058h.53v2.117h-.53v.53h-25.4v-.53h-.529v-2.117h.53v-.529h-.53V13.23h.53v-.53h.529v-1.587h.529v-.53h.529v-.528h1.587v-.53h.53V6.88h.529v-.53h.529v-.529h1.587V4.763h.53v-.53h.529v-.528h.529V2.646h.529v-.529h.53v-.529h2.645v-.53zm-37.571 0v.529h.529v.53h2.117v.528h.529v.53h.529v.529h.53v.529h.528v.529h.53v.53h2.116v.528h.53v.53h.529v2.116h.529v2.117h-.53v.529h.53v.53h2.116v.528h.53v.53h.529v2.116h-.53v.53h-.529v.528h-.529v1.059h-.529v.529h-.53v.53h-.528v.528H8.994v-2.116h.53v-.53h.529v-1.587h.53v-.53h.528v-.528h2.117v-.53h.53v-.529h.528v-.529h.53v-.529h.529v-1.058h-.53V7.938h.53v-.53h.529V5.821h.529v-.529h.53v-.529h2.116V3.705h.529v-.53h.53v-.529h2.116v-.529h.529v-.529h.53v-.53z">
        <animateTransform attributeName="transform" attributeType="XML" calcMode="discrete" dur="3s" keySplines="0.25 0.1 0.25 1;0.25 0.1 0.25 1" keyTimes="0;0.5;1" repeatCount="indefinite" type="translate" values="0 0; -0.4 0; 0 0"/>
      </path>
    </pattern>
  </defs>
  <path fill="#77b4e6" d="M0 0h63.5v33.337H0z"/>
  <path fill="url(#clouds)" d="M0 0h63.5v33.337H0z"/>
  <path fill="#6dcc63" d="M62.97 12.7v.53h-1.058v.528h-1.058v-.529h-1.059v.53h-.528v.528h-.53v.53H57.15v-.53h-.53v-.529h-1.058v-.529h-1.587v.53h-1.058v.528h-.53v.53H51.33v.529h-1.06v-.53h-1.058v.53h-1.587v.529h-.53v.53h-.528v-.53H44.45v.53h-1.058v-.53h-.53v-.53h-1.058v.53h-.529v.53h-1.058v-1.06h-1.059v-.528H38.1v.529h-.53v.529h-.528v-.53h-1.059v.53h-1.058v.53h-.53v-.53h-1.058v-.53H32.28v-.528h-1.06v.529h-1.587v.529h-1.058v-.53h-.53v-.528h-1.587v-.53h-.529v-.529h-1.587v.53h-2.117v-.53h-1.588v.53h-.529v.529h-.529v.529h-2.646v-.53h-.529v-.529h-2.646v.53H12.7v.529h-.53v.529h-.528v.53h-.53v.528h-.529v.53H8.467v-.53h-.53v-.529H6.35v-.529h-.53v-.53H4.763v.53H3.175v-.53H1.058v.53H0v8.996h63.5V12.7z"/>
  <path fill="#5caf37" d="M60.325 14.817v.529h.53v-.53zm.53.529v.529h.528v-.53zm.528 0h.53v-.53h-.53zm-5.291 0v.529h.529v-.53zm-43.392.529v.53h.53v-.53zm.53.53v.528h.528v-.529zm.528 0h.53v-.53h-.53zm10.054-.53v.53H25.4v-.53zm2.646 0v.53h.53v-.53zm.53.53v.528h.529v-.529zm3.704-.53v.53h.529v-.53zm.529.53v.528h.529v-.529zm.529 0h.53v-.53h-.53zm23.283-.53v.53h.53v-.53zm2.646 0v.53h.53v-.53zm-39.687.53v.528h.529v-.529zm17.991 0v.528h.53v-.529zm25.93 0v.528h.529v-.529zm.529.528v.53h.529v-.53zm-59.796 0v.53h1.587v-.53zm2.646 0v.53h.529v-.53zm.529.53v.529h.529v-.53zm10.583-.53v.53h.53v-.53zm2.646 0v.53h.53v-.53zm3.175 0v.53h1.588v-.53zm2.117 0v.53h.529v-.53zm4.233 0v.53h.53v-.53zm0 .53h-.53v.529h.53zm0 .529v.529h.53v-.53zm5.82-1.059v.53h.53v-.53zm2.647 0v.53h.529v-.53zm13.229 0v.53h.529v-.53zm5.82 0v.53h.53v-.53zm4.234 0v.53h.53v-.53zm0 .53h-.53v.529h.53zm-48.154 0v.529h1.059v-.53h-1.06m1.058.529v.529h1.058v-1.059h-.529v.53zm1.058.529v1.059h.53v-1.06zm.53 1.058v.53h.529v-.53zm-2.646-1.587h-.53v.529h.53zm7.937-.53v.53h.53v-.53zm1.059 0v.53h.529v-.53zm8.995 0v.53h.53v-.53zm0 .53h-.529v.529h.53zm17.992-.53v.53h.53v-.53zm4.233 0v.53h.53v-.53zm5.292 0v.53h.53v-.53zm-56.62.53v.529h1.587v-.53H1.058m2.116 0v.529h.53v-.53zm4.233 0v.529H6.88v.529h.53v.53h.528V17.99zm1.059 0v.529h.529v-.53zm9.525 0v.529h.529v-.53zm8.466 0v.529h.53v-.53zm0 .529h-.529v.529h.53zm5.292-.53v.53h.53v-.53zm.53.53v.529h.528v-.53zm3.703-.53v.53h.53v-.53zm5.821 0v.53h.53v-.53zm-42.862.53v.529h.529v-.53zm1.058 0v.529h.53v-.53zm10.054 0v.529h.53v-.53zm6.35 0v.529h.53v-.53zm5.292 0v.529h.529v-.53zm12.7 0v.529h.529v-.53zm5.291 0v.529h.53v-.53zm4.234 0v.529h.529v-.53zm4.233 0v.529h.53v-.53zm3.704 0v.529h.53v-.53zm4.234 0v.529h.529v-.53zm6.35 0v1.587h.529V18.52zm-57.15.529v.53h.529v-.53zm0 .53h-.53v.528h.53zm43.92-.53v.53h.53v-.53zm4.763 0v.53h.53v-.53zm7.408 0v.53h.53v-.53zM.53 19.58v.528h.53v-.529zm7.938 0v.528h.529v-.529zm3.175 0v1.587h.529v-.53h1.059V19.58h-.53v.53h-.53v-.53zm6.35 0v.528h.529v-.529zm1.587 0v.528h.53v-.529zm2.646 0v.528h.53v-.529zm1.587 0v.528h.53v-.529zm5.821 0v1.587h.53v-1.588zm6.35 0v.528h.53v-.529zm4.234 0v.528h.529v-.529zm3.704 0v.528h.529v-.529zm3.704 0v1.587h.53v-1.588zm2.646 0v.528h.529v-.529zm2.646 0v.528h.529v-.529zm2.116 0v.528h.53v-.529zm3.704 0v.528h.53v-.529zm-48.683.528v.53h.53v-.53zm20.638 0v.53h.529v-.53zm7.408 0v.53h.53v-.53zm4.762 0v.53h.53v-.53zm14.288 0v.53h.53v-.53zm4.233 0v1.588h.53v-1.588zm-62.97.53v.529h.529v-.53zm2.645 0v.529h.53v-.53zm1.588 0v.529h.529v-.53zm12.7 0v.529h.529v-.53zm0 .529h-.53v1.588h1.059v-.53h-.53zm-.53 1.587h-1.058v.53h-.529v.528h.53v.53h.528v-1.059h.53zm-1.058 1.588h-.529V25.4h.53v-1.058m5.292-3.705v.53h.53v-.53zm6.88 0v.53h.528v-.53zm1.587 0v.53h.529v-.53zm5.82 0v.53h.53v-.53zm3.705 0v.53h.529v-.53zm2.116 0v.53h.53v-.53zm2.646 0v.53h.53v-.53zm2.646 0v1.588h.53v-1.588zm7.408 0v.53h.53v-.53zm-43.391.53v.529h.529v-.53zm4.233 0v1.588h.53v-1.588zm4.233 0v.529h.53v-.53zm4.234 0v.529h.529v-.53zm2.116 0v.529h.53v-.53zm7.409 0v1.588h.529v-1.588zm4.233 0v.529h.53v-.53zm11.642 0v1.588h.529v-1.588zm3.704 0v.529h.529v-.53zm3.704 0v.529h.53v-.53zm2.117 0v.529h.529v-.53zm2.645 0v.529h.53v-.53zm-53.975.529v.529h.53v-.53zm1.588 0v.529h.53v-.53zm7.408 0v.529h.53v-.53zm6.35 0v.529h.53v-.53zm20.109 0v.529h.529v-.53zm7.408 0v.529h.53v-.53zm7.408 0v.529h.53v-.53zm4.763 0v.529h.529v-.53zM0 22.225v.53h.53v-.53zm2.117 0v.53h.529v-.53zm5.291 0v.53h.53v-.53zm3.704 0v.53h.53v-.53zm6.88 0v.53h.529v-.53zm4.233 0v.53h.53v-.53zm2.646 0v.53h.529v-.53zm1.587 0v.53h.53v-.53zm1.588 0v.53h.529v-.53zm5.291 0v.53h.53v-.53zm2.646 0v.53h.53v-.53zm2.117 0v.53h.53v-.53zm3.704 0v.53h.53v-.53zm3.704 0v1.588h.53v-1.588zm7.409 0v.53h.529v-.53zm4.233 0v.53h.53v-.53zm3.704 0v.53h.53v-.53zm-61.912.53v.528h.529v-.529zm10.583 0v.528h.53v-.529zm9.525 0v.528h.53v-.529zm13.23 0v.528h.528v-.529zm4.762 0v.528h.529v-.529zm7.408 0v.528h.53v-.529zm-43.392.528v.53h.53v-.53zm2.646 0v.53h.53v-.53zm1.588 0v.53h.529v-.53zm1.587 0v.53h.53v-.53zm10.054 0v.53h.53v-.53zm4.763 0v.53h.529v-.53zm2.116 0v.53h.53v-.53zm3.705 0v.53h.529v-.53zm3.704 0v.53h.529v-.53zm3.704 0v.53h.53v-.53zm4.233 0v.53h.53v-.53zm10.054 0v.53h.53v-.53zm0 .53h-.529v.529h.53zm2.117-.53v.53h.53v-.53zm5.292 0v.53h.529v-.53zm4.233 0v.53h.53v-.53zm-52.387.53v.529h.529v-.53zm2.645 0v.529h.53v-.53zm35.455 0v.529h.529v-.53zm.529.529v.529h.529v-.53zm5.82-.53v.53h.53v-.53zm5.821 0v.53h.53v-.53zm-58.208.53v.529h.53v-.53zm2.117 0v.529h.529v-.53zm3.704 0v.529h.53v-.53zm1.058 0v.529h.53v-.53zm4.763 0v.529h.529v-.53zm5.291 0v.529h.53v-.53zm13.759 0v.529h.529v-.53zm4.233 0v.529h.53v-.53zm5.292 0v.529h.529v-.53zm2.116 0v.529h.53v-.53zm.53.529v.529h.529v-.53zm-33.867 0v.529h.53v-.53zm5.82 0v.529h.53v-.53zm17.992 0v.529h.53v-.53zm5.821 0v.529h.53v-.53zm6.35 0v.529h.53v-.53zm0 .529h-.529v.53h.53zm5.821-.53v.53h.53v-.53zm2.646 0v.53h.53v-.53zm-5.82.53v.53h.528v-.53zm.528.53v.528h.53v-.529zm-.529 0h-.529v.528h.53zm4.763-.53v.53h.529v-.53zm-43.921.53v.528h.529v-.529zm4.233 0v.528h.53v-.529zm24.871 0v.528h.53v-.529zm2.646 0v.528h.529v-.529zm-29.634.528v.53h.53v-.53zm28.046 0v.53h.53v-.53zm4.763 0v.53h.529v-.53zm.529.53v.529h.53v-.53zm-.53 0h-.528v.529h.529z"/>
  <path fill="#9db6cc" d="M12.173 18.52v.53h3.174v-.53h-2.645Zm3.175 0v.53h2.645v-.53h-2.116Zm2.645.53v.529h.529v-.53zm-7.937 0v.529h2.116v-.53h-1.587Zm0 .529h-.529v1.587h.529v-1.058Zm-.529 1.587h-.529v.53h.53zm8.996-2.116v.529h3.174v-.53h-2.645Z"/>
  <path fill="#859baf" d="M12.173 19.05v.528h-1.588v.001H9.527v.529h.529v1.058h-.529v.53h-.529v1.057h-.001v-.528h-.53v.529h.002v.529h-.001v-.529h-.529v.529H7.41v1.058h.53v.53h1.057v-.53h.001v.53h3.174v-.53.53h3.175v-.53.53h3.175v-.53.53h3.175v-.53.53h3.175v-.53.53h1.059v-.53h.529v-2.645h-1.587 1.058v-.53h-1.059v-.53h-.53v.002h-1.586v-.001h1.587v-.53h-1.588v-.528h-.528v-.53h-.529v.53h-3.705v-.53z"/>
  <path fill="#6c8499" d="M10.056 20.108v.529h1.059v-.53h-.53Zm1.058.529v.529h1.058v-.53h-.53Zm12.171-.53v.53h.53v-.53Zm0 .53h-.53v.529h-.528v.53h1.058v-.53zm-11.112 0v.529h3.174v-.53h-2.645Zm3.175 0v.529h1.058v-.53h-.529zm1.058.529v.53h2.116v-.53h-1.587Zm-7.408.53v.529h.53v-.53zm.53.529v.529h2.115v-.53h-1.588Zm2.115.529v.529h.529v-.529Zm8.996-1.058v.529h1.058v-.53h-.53zm0 .529h-2.116v.529h2.117zm1.059-.53v.53h1.058v-.53h-.529zm-3.705.53v.529h.529v-.53zm0 .529h-2.645v.529h2.645zm-3.704 0v.529h1.058v-.529h-.53zm-2.116.529v.529h1.058v-.53h-.529zm1.058.529v.529h2.116v-.53H13.76Zm2.117 0v.529h2.645v-.53h-2.116Z"/>
  <path fill="#51697f" d="M21.698 19.05v1.587h1.587v.529h.53v.53h1.057v-1.06h-.53v-.528h-1.587v-.529h-.528v-.53zm3.175 2.116v.53h1.058v-.53h-.529zm-1.059.53v.529h.529v1.058h-.529v1.588h1.058v-3.175h-.53zm1.059 0v3.175h1.587v-3.175h-1.058z"/>
  <path fill="#237b64" d="M10.055 22.225v.529h1.06v-.53h-1.06m1.06.529v.529h1.058v-.53h-1.059m1.057.529v.53h1.059v-.53zm1.059.53v.528h.529v-.53zm.529 0h1.058v-.53h-1.058zm1.058-.53h1.059v-.53h-1.059zm1.059 0v.53h.529v-.53zm.529 0h.529v-.53h-.53zm.529-.53h1.058v-.528h-1.057Zm1.058 0v.53h1.059v-.53zm1.059.53v1.058h1.058v-.53h-.53v-.528zm1.058.53h.53v-.53h-.53zm.53-.53h1.058v-.53h-1.059zm1.057 0v.53h.53v-.53zm.53.53v.528h1.058v-.53h-1.058m1.058 0h2.117v-.53h-2.116Zm2.117 0v.529h.529v-.53zm.529 0h.529v-.53h-.53zm-15.875-1.06H8.467v.53h1.588zm-1.588.53H7.409v.53h1.058z"/>
  <path fill="#44ad6a" d="M0 18.52v12.172h63.5v-8.997h-1.058v-.528h-2.117v.529h-1.588v-.53H57.68v.53h-.529v.529h-1.588v.53h-.529v.528h-2.116v-.529h-.53v-.529h-.529v-.53h-.529v-.528h-.53v-.53h-1.058v-.529h-2.647v.53h-.528v.529H43.92v-.53h-.528v-.529h-.53v-.529h-1.587v.53h-2.117v-.53H37.57v.53h-.528v.528h-1.588v.53h-.529v.529h-1.058v-.53h-1.588v-.529H31.22v.53h-1.058v.529h-1.058v.529h-.529v-.53h-1.058v-.528h-1.059v.529h-.529v-.53H25.4v-.529h-1.058v.53h-1.059v1.058h-1.058v-.53h-.53v-.528h-1.058v.529h-.529v.529H19.05v-.53h-2.117v.53h-.529v-.53h-.529v-.528h-1.588v-.53H13.23v.53h-1.06v-.53h-1.058v-.529h-.529v-.529H9.525v-.529H7.937v.53H6.88v.528h-.53v.53H4.762v-.53h-.529v-.529h-.529v-.529H2.645v.53H1.588v-.53H.53v-.53z"/>
  <path fill="#5fbc62" d="M1.587 20.637v.53h.53v-.53zm.53.53v.529h.529v-.53zm.529 0h.529v-.53h-.53zm4.233 0v.529h.53v-.53zm-1.587.529v.529h.529v-.53zm2.645 0v.529h.53v-.53zm23.284 0v.529h.529v-.53zm.529.529v.53h.53v-.53zm.53 0h.528v-.53h-.529zm4.232-.53v.53h.53v-.53zm0 .53h-.529v.53h.53zm1.588-.53v.53h1.588v-.53zm11.112 0v.53h.53v-.53zm.53.53v.53h.529v-.53zm.529 0h.529v-.53h-.53zm-49.213 0v.53h.53v-.53zm0 .53H.53v.528h.53zm18.521-.53v.53h.53v-.53zm7.408 0v.53h.53v-.53zm17.992 0v.53h.53v-.53zm-42.333.53v.528h.529v-.529zm.529.528v.53h.53v-.53zm3.704-.529v.53h.53v-.53zm5.821 0v.53h.53v-.53zm4.762 0v.53h.53v-.53zm4.234 0v.53h.529v-.53zm4.233 0v.53h.53v-.53zm2.646 0v.53h.53v-.53zm5.82 0v.53h.53v-.53zm.53.53v.528h.53v-.529zm0 .528h-.53v.53h.53zm3.704-1.058v.53h.53v-.53zm1.058 0v.53h1.588v-.53zm4.234 0v.53h.529v-.53zm2.646 0v.53h.529v-.53zm11.112 0v.53h.53v-.53zm0 .53h-.529v.528h-1.588v.53h.53v.529h.529v-.53h1.059v-1.058m-1.058 1.587v.529h.529v-.53zm-.53 0h-.529v.529h.53zm3.176-2.117v.53h1.588v-.53zm-53.975.53v.528h.529v-.529zm5.291 0v.528h.53v-.529zm4.234 0v.528h.529v-.529zm17.991 0v.528h.53v-.529zm.53.528v.53h.529v-.53zm8.466-.529v.53h.53v-.53zm1.058 0v.53h.53v-.53zm7.938 0v.53h.53v-.53zm.53.53v.529h.528v-.53zm-33.868 0v.529h.53v-.53zm3.705 0v.529h.529v-.53zm5.82 0v.529h.53v-.53zm4.234 0v.529h.529v-.53zm0 .529h-.53v.529h.53zm5.291-.53v.53h.53v-.53zm.53.53v.529h.529v-.53zm7.937-.53v.53h.53v-.53zm4.233 0v.53h.53v-.53zm0 .53h-.529v.529h.53zm5.292-.53v.53h.53v-.53zm0 .53h-.529v.529h.53zm5.292-.53v.53h.529v-.53zm1.058 0v.53h1.588v-.53zm-60.325.53v1.588h.53v-1.588zm6.35 0v.529h.53v-.53zm4.233 0v.529h.53v-.53zm3.705 0v.529h.529v-.53zm3.704 0v.529h1.059v-.53h-1.06m1.058.529v.529h.53v-.53zm0 .529h-.529v.53h.53zm3.704-1.058v.529h.53v-.53zm5.292 0v.529h.53v-.53zm12.7 0v.529h.53v-.53zm5.292 0v.529h.529v-.53zm16.404 0v.529h.529v-.53zm1.058 0v.529h.53v-.53zm-62.442.529v.529h.53v-.53zm7.409 0v.529h.529v-.53zm4.762 0v.529h.53v-.53zm3.175 0v1.587h.53V24.87zm5.292 0v.529h.53v-.53zm.53.529v.53h.528v-.53zm29.632-.53v.53h.53v-.53zm.53.53v.53h.529v-.53zm0 .53h-.53v.528h.53zm4.762-1.06v.53h.53v.53h.528v-.53h.53v-.53zm-53.446.53v.53h.53v-.53zm3.704 0v.53h.53v-.53zm2.117 0v.53h.53v-.53zm2.646 0v.53h.53v-.53zm2.646 0v1.588h.529v.529h-.53v.529h1.06v.529h.528v-1.058h.53v-.53h-1.059v-.529h-.529V25.4zm11.641 0v.53h.53v-.53zm6.35 0v1.588h.53V25.4zm5.821 0v.53h.53v-.53zm1.588 0v.53h.529v-.53zm2.646 0v.53h.529v-.53zm1.587 0v.53h.53v-.53zm6.35 0v1.588h.53V25.4zm8.467 0v.53h.529v-.53zm1.058 0v.53h.53v-.53zm1.588 0v.53h.529v-.53zm-60.855.53v1.587h.53v-1.588zm4.234 0v.528h.529v-.529zm14.287 0v.528h.53v-.529zm0 .528h-.529v.53h.53zm1.059-.529v1.058h.529V25.93zm3.704 0v.53h.529v-.53zm7.408 0v.53h.53v-.53zm17.992 0v.53h.529v-.53zm4.233 0v.53h.53v-.53zm.53.53v.528h.528v-.529zm-43.922 0v.528h.53v-.529zm7.409 0v1.587h.529v-1.588zm4.762 0v.528h1.059v-.529zm2.646 0v.528h.53v-.529zm3.704 0v.528h.53v-.529zm5.821 0v.528h.53v-.529zm1.588 0v.528h.529v-.529zm6.879 0v.528h.529v-.529zm3.704 0v.528h.53v-.529zm11.642 0v.528h.529v-.529zm1.058 0v.528h.53v-.529zm1.587 0v.528h.53v-.529zm2.646 0v.528h.53v-.529zm-60.325.528v.53h.53v-.53zm2.646 0v.53h.53v-.53zm2.117 0v.53h.529v-.53zm3.704 0v.53h.53v-.53zm15.346 0v.53h.529v-.53zm4.233 0v1.588h.53v-1.588zm7.408 0v.53h.53v-.53zm2.117 0v.53h.53v-.53zm4.233 0v.53h.53v-.53zm4.234 0v1.588h.529v-1.588zm-47.096.53v.529h.53v-.53zm4.762 0v.529h.53v-.53zm14.288 0v.529h1.058v-.53zm20.637 0v.529h.53v-.53zm13.759 0v.529h1.059v-.53h-1.06m1.587 0v.529h1.059v-.53h-1.059m3.175 0v.529h.53v-.53zm0 .529h-.529v.529h.53zm-59.266 0v.529h.529v-.53zm3.704 0v.529h.529v-.53zm4.233 0v.529h.53v-.53zm7.408 0v1.587h1.059v-.529h-.53v-1.059zm1.059 1.058h.529v-.529h-.53zm2.646-1.058v.529h.529v-.53zm0 .529h-.53v.53h.53zm3.704-.53v.53h.529v-.53zm2.116 0v.53h.53v-.53zm2.646 0v.53h.53v-.53zm5.292 0v.53h.53v-.53zm1.587 0v.53h.53v-.53zm1.588 0v.53h.53v-.53zm2.646 0v.53h.529v-.53zm4.233 0v.53h.53v-.53zm2.646 0v.53h.53v-.53zm15.346 0v.53h.529v-.53zm-37.042.53v.53h.53v-.53zm4.763 0v.53h.529v-.53zm13.229 0v.53h.529v-.53zm4.762 0v.53h.53v-.53zm4.763 0v.53h.529v-.53zm1.587 0v.53h.53v-.53zm8.996 0v.53h.53v-.53zm-61.912.53v.528h.529v-.529zm4.233 0v.528h.53v-.529zm5.292 0v.528h.529v-.529zm2.116 0v.528h.53v-.529zm.53.528v.53h.529v-.53zm1.587-.529v.53h.53v-.53zm.53.53v.528h.528v-.529zm0 .528h-.53v.53h.53zm5.82-1.058v.53h.53v-.53zm1.587 0v.53h.53v-.53zm4.234 0v.53h.529v-.53zm3.704 0v.53h.53v-.53zm3.704 0v.53h.53v-.53zm3.704 0v.53h.53v-.53zm2.117 0v.53h.53v-.53zm4.762 0v.53h.53v-.53zm3.705 0v.53h.529v-.53zm6.35 0v.53h.529v-.53zm1.587 0v.53h.53v-.53zm1.588 0v.53h1.058v-.53zm2.645 0v.53h.53v-.53zm-57.679.53v.528h.53v-.529zm5.821 0v.528h.53v-.529zm50.8 0v.528h.53v-.529zm0 .528h-.529v.53h.53zm-40.746 0v.53h1.059v-.53zm0 .53h-.529v.529h.53zm2.117-.53v1.059h.53v-1.059zm1.058 0v.53h.53v-.53zm.53.53v.529h.529v-.53zm3.704-.53v.53h.529v-.53zm4.233 0v.53h.53v-.53zm13.758 0v.53h.53v-.53zm4.234 0v.53h.529v-.53zm3.175 0v.53h.529v-.53zm1.587 0v.53h.53v-.53zm1.588 0v.53h1.058v-.53zm2.645 0v.53h.53v-.53zm3.705 0v.53h.529v-.53zm-53.446.53v.529h.529v-.53zm2.646 0v.529h.529v-.53zm5.82 0v.529h.53v-.53zm.53.529v.529h.529v-.53zm-.53 0h-.529v.529h.53zm12.171-.53v.53h.53v-.53zm17.992 0v.53h.53v-.53zm-37.57.53v.529h.528v-.53zm4.762 0v.529h.529v-.53zm.529.529v.53h.529v-.53zm-.53 0h-.529v.53h.53zm38.63-.53v.53h.529v-.53zm3.704 0v.53h.53v-.53zm2.117 0v.53h.529v-.53zm-37.042.53v.53h.53v-.53zm2.646 0v.53h.529v-.53zm-5.821.53v.528h.53v-.529zm.53.528v.53h.528v-.53zm-.53 0h-.53v.53h.53zm4.762-.529v.53h.53v-.53z"/>
  <path fill="#9db6cc" d="M33.338 23.813v.529h3.174v-.53h-3.174m3.175 0v.529h2.645v-.53h-2.645m2.645.529v.53h.529v-.53zm-7.937 0v.53h2.116v-.53H31.22m0 .53h-.529v1.587h.529V24.87m-.529 1.586h-.529v.53h.53zm8.996-2.116v.53h3.174v-.53h-3.174"/>
  <path fill="#859baf" d="M33.338 24.342v.528H31.75v.001h-1.058v.529h.529v1.058h-.529v.53h-.529v1.057h-.001v-.528h-.53v.53h.002v.528h-.001v-.529h-.529v.529h-.529v1.059h.53v.528h1.057v-.529h.001v.53h3.174v-.53h.001v.53h3.174v-.53h.001v.53h3.174v-.53h.001v.53h3.174v-.53h.001v.53h3.174v-.53h.001v.53h1.058v-.53h.529v-2.645h-1.587 1.058v-.53h-1.059v-.53h-.53v.002h-1.586v-.001h1.587v-.53H43.92v-.528h-.528v-.53h-.529v.53h-3.705v-.53z"/>
  <path fill="#6c8499" d="M31.22 25.4v.529h1.06v-.53h-1.06m1.06.529v.53h1.057v-.53h-1.058m12.17-.53v.53h.53v-.53zm0 .53h-.53v.53h-.528v.528h1.058v-1.059m-11.112 0v.53h3.174v-.53h-3.174m3.175 0v.53h1.058v-.53h-1.058m1.058.53v.528h2.116v-.529H37.57m-7.408.529v.529h.53v-.53zm.53.529v.53h2.115v-.53h-2.116m2.115.53v.528h.529v-.529zm8.996-1.06v.53h1.058v-.53h-1.058m0 .53h-2.116v.53h2.117zm1.059-.53v.53h1.058v-.53h-1.058m-3.705.53v.53h.529v-.53zm0 .53h-2.645v.528h2.645zm-3.704 0v.528h1.058v-.529h-1.058m-2.116.528v.529h1.058v-.53h-1.058m1.058.529v.53h2.116v-.53h-2.117m2.117 0v.53h2.645v-.53h-2.645"/>
  <path fill="#51697f" d="M42.863 24.342v1.587h1.587v.53h.53v.528h1.057v-1.059h-.53V25.4H43.92v-.529h-.528v-.53zm3.175 2.116v.53h1.058v-.53h-1.058m-1.059.53v.529h.529v1.058h-.529v1.587h1.058v-3.174h-1.058m1.059 0v3.174h1.587v-3.174h-1.587"/>
  <path fill="#237b64" d="M31.22 27.517v.529h1.06v-.53h-1.06m1.06.529v.529h1.058v-.53h-1.059m1.057.529v.53h1.059v-.53zm1.059.53v.528h.529v-.529zm.529 0h1.058v-.53h-1.058zm1.058-.53h1.059v-.53h-1.059zm1.059 0v.53h.529v-.53zm.529 0h.529v-.53h-.53zm.529-.53h1.058v-.528H38.1zm1.058 0v.53h1.059v-.53zm1.059.53v1.058h1.058v-.529h-.53v-.529zm1.058.53h.53v-.53h-.53zm.53-.53h1.058v-.53h-1.059zm1.057 0v.53h.53v-.53zm.53.53v.528h1.058v-.529h-1.058m1.058 0h2.117v-.53H44.45zm2.117 0v.528h.529v-.529zm.529 0h.529v-.53h-.53zm-15.875-1.06h-1.588v.53h1.588zm-1.588.53h-1.058v.53h1.058z"/>
  <path fill="#64463c" d="M37.042 22.754v.53h.529v-.53zm0 .53h-.53v.529h.53zm-.53.529h-.529v.529h.53zm-.529.529h-.529v.529h-1.059v.529h2.118v-.53h-.53zm5.821-1.588v.53h.53v-.53zm0 .53h-.529v1.058h.53v-.53zm-.529 1.058h-.53V25.4h-1.058v.53h2.118v-.53h-.53v-.53z"/>
  <path fill="#375a79" d="M35.454 4.233v.53h-1.059v.529h-.528v.529h-.53v1.587h-.529v2.117h-.529v1.058h.53v.53H31.75v2.117h-.53v3.175h.53v1.587h.53v1.058h.528v.53h.53v.528h.529v.53h.529v.529h1.059v.529h1.058v.529h1.058v.53h4.762v-.53h.53v-.53h1.587v-.528h.53v-.53h.528v-.529h3.175v.53h2.647v.529h2.116v-.53h.529V19.58h-.53v-.529h-1.058v-.53H51.33v-.528h-.53v-.53h-1.058v-.529h.529v-1.587h-.53v-.53h-.528v-.528h-.53v-.53h-.529v-.529h-.529v-.53h-.53v-.53h-.528v-.528h-.53v-.53h-.529v-.529h-.529v-.529h-.529v-.529h-.53v-.53h-.528v-.528h-.53V7.408h-.529V6.88h-.529v-.53h-.529v-.53h-.53v-.528h-.528v-.53h-1.059v-.529h-3.175z"/>
  <path fill="#4d547c" d="M31.75 7.938v.529h-1.058v.529h1.058v.529h1.058V7.937h-.529z"/>
  <path fill="#3b2610" d="M36.513 7.408v1.588h1.058V7.408h-.53z"/>
  <path fill="#d2e2e5" d="M37.042 7.938h.529v.529h-.529z"/>
  <path fill="#23405a" d="M38.63 12.7v1.058h.528v.53h.53v.529h.529v.529h.529v.529h.529v.53h1.588v.528h1.587v.53h5.292v-.53h-3.705v-.529H44.45v-.529h-1.588v-.53h-1.587v-.528h-.53v-.53h-.528v-.529h-.53v-.529h-.529V12.7z"/>
  <path fill="#a3bfd1" d="M31.75 10.583h.529v.529h-.529zm-.529 0h.529v.529h-.529zm-1.058 1.059h.529v.529h-.529zm0-.529h.529v.529h-.529z"/>
  <path fill="#819eb1" d="M30.692 10.583h.529v.529h-.529z"/>
  <path fill="#35717b" d="M46.038 12.17v1.06h1.058v1.058h.529v.529h.53v.529h.528v.529h-2.646v-.53H44.45v1.06h1.588v.528h4.233v-1.588h-.53v-.528h-.528v-.53h-.53v-.529h-.529v-.529h-.529V12.7h-.53v-.53h-.528zm2.116 5.293v.529h1.588v.529H50.8v1.059h-1.588v-.53h-3.704v1.058h3.175v.53h2.647v.529h2.116v-.53h.529V19.58h-.53v-.529h-1.058v-.53H51.33v-.528h-.53v-.53h-2.117z"/>
  <path fill="#7b96ae" d="M41.804 8.467v.529h-1.059v.529h-.528v.53h-.53v.528H38.63v.53h-5.292v-.53H32.28v.53h.53v.529h1.058v.529h5.291v-.53h.53v-.528h.529v-.53h1.058v-.529h1.058v-.529h1.059V8.467h-1.059z"/>
  <path fill="#a3bfd1" d="M30.692 10.583v.53h-.53V12.7h.53v.53h1.058v-1.06h.53v-1.587h-1.06z"/>
  <path fill="#a6c6dc" d="M30.692 11.113V12.7h.529v-.53h.529v-.528h.53v-.53h-1.06z"/>
  <path fill="#b6cad6" d="M30.692 10.583v.53h1.588v-.53h-1.06zm0 .53h-.53V12.7h.53v-1.058z"/>
  <path fill="#378967" d="M62.97 25.93v.528h-1.058v.53h-1.058v-.53h-1.059v.53h-.528v.529h-.53v.529H57.15v-.53h-.53v-.529h-1.058v-.529h-1.587v.53h-1.058v.529h-.53v.529H51.33v.529h-1.06v-.53h-1.058v.53h-1.587v.53h-.53v.528h-.528v-.529H44.45v.53h-1.058v-.53h-.53v-.529h-1.058v.53h-.529v.528h-1.058v-1.058h-1.059v-.53H38.1v.53h-.53v.53h-.528v-.53h-1.059v.53h-1.058v.528h-.53v-.529h-1.058v-.529H32.28v-.53h-1.06v.53h-1.587v.53h-1.058v-.53h-.53v-.53h-1.587v-.528h-.529v-.53h-1.587v.53h-2.117v-.53h-1.588v.53h-.529v.529h-.529v.529h-2.646v-.53h-.529v-.528h-2.646v.529H12.7v.529h-.53v.53h-.528v.528h-.53v.53h-.529v.529H8.467v-.53h-.53v-.529H6.35v-.529h-.53v-.529H4.763v.53H3.175v-.53H1.058v.53H0V38.1h63.5V25.929z"/>
  <path fill="#4ea46e" d="M60.325 28.046v.529h.53v-.53zm.53.529v.53h.528v-.53zm.528 0h.53v-.53h-.53zm-5.291 0v.53h.529v-.53zm-43.392.53v.528h.53v-.529zm.53.528v.53h.528v-.53zm.528 0h.53v-.529h-.53zm10.054-.529v.53H25.4v-.53zm2.646 0v.53h.53v-.53zm.53.53v.528h.529v-.529zm3.704-.53v.53h.529v-.53zm.529.53v.528h.529v-.529zm.529 0h.53v-.53h-.53zm23.283-.53v.53h.53v-.53zm2.646 0v.53h.53v-.53zm-39.687.53v.528h.529v-.529zm17.991 0v.528h.53v-.529zm25.93 0v.528h.529v-.529zm.529.528v.53h.529v-.53zm-59.796 0v.53h1.587v-.53zm2.646 0v.53h.529v-.53zm.529.53v.529h.529v-.53zm10.583-.53v.53h.53v-.53zm2.646 0v.53h.53v-.53zm3.175 0v.53h1.588v-.53zm2.117 0v.53h.529v-.53zm4.233 0v.53h.53v-.53zm0 .53h-.53v.529h.53zm0 .529v.529h.53v-.53zm5.82-1.059v.53h.53v-.53zm2.647 0v.53h.529v-.53zm13.229 0v.53h.529v-.53zm5.82 0v.53h.53v-.53zm4.234 0v.53h.53v-.53zm0 .53h-.53v.529h.53zm-48.154 0v.529h1.059v-.53h-1.06m1.058.529v.529h1.058v-1.058h-.529v.529zm1.058.529v1.058h.53V31.75zm.53 1.058v.53h.529v-.53zm-2.646-1.587h-.53v.529h.53zm7.937-.53v.53h.53v-.53zm1.059 0v.53h.529v-.53zm8.995 0v.53h.53v-.53zm0 .53h-.529v.529h.53zm17.992-.53v.53h.53v-.53zm4.233 0v.53h.53v-.53zm5.292 0v.53h.53v-.53zm-56.62.53v.529h1.587v-.53H1.058m2.116 0v.529h.53v-.53zm4.233 0v.529H6.88v.53h.53v.528h.528V31.22zm1.059 0v.529h.529v-.53zm9.525 0v.529h.529v-.53zm8.466 0v.529h.53v-.53zm0 .529h-.529v.53h.53zm5.292-.53v.53h.53v-.53zm.53.53v.53h.528v-.53zm3.703-.53v.53h.53v-.53zm5.821 0v.53h.53v-.53zm-42.862.53v.53h.529v-.53zm1.058 0v.53h.53v-.53zm10.054 0v.53h.53v-.53zm6.35 0v.53h.53v-.53zm5.292 0v.53h.529v-.53zm12.7 0v.53h.529v-.53zm5.291 0v.53h.53v-.53zm4.234 0v.53h.529v-.53zm4.233 0v.53h.53v-.53zm3.704 0v.53h.53v-.53zm4.234 0v.53h.529v-.53zm6.35 0v1.588h.529V31.75zm-57.15.53v.528h.529v-.529zm0 .528h-.53v.53h.53zm43.92-.529v.53h.53v-.53zm4.763 0v.53h.53v-.53zm7.408 0v.53h.53v-.53zM.53 32.81v.528h.53v-.529zm7.938 0v.528h.529v-.529zm3.175 0v1.587h.529v-.53h1.059v-1.058h-.53v.53h-.53v-.53zm6.35 0v.528h.529v-.529zm1.587 0v.528h.53v-.529zm2.646 0v.528h.53v-.529zm1.587 0v.528h.53v-.529zm5.821 0v1.587h.53v-1.588zm6.35 0v.528h.53v-.529zm4.234 0v.528h.529v-.529zm3.704 0v.528h.529v-.529zm3.704 0v1.587h.53v-1.588zm2.646 0v.528h.529v-.529zm2.646 0v.528h.529v-.529zm2.116 0v.528h.53v-.529zm3.704 0v.528h.53v-.529zm-48.683.528v.53h.53v-.53zm20.638 0v.53h.529v-.53zm7.408 0v.53h.53v-.53zm4.762 0v.53h.53v-.53zm14.288 0v.53h.53v-.53zm4.233 0v1.588h.53v-1.588zm-62.97.53v.529h.529v-.53zm2.645 0v.529h.53v-.53zm1.588 0v.529h.529v-.53zm12.7 0v.529h.529v-.53zm0 .529h-.53v1.587h1.059v-.529h-.53zm-.53 1.587h-1.058v.53h-.529v.529h.53v.529h.528v-1.059h.53zm-1.058 1.588h-.529v1.059h.53v-1.06m5.292-3.704v.529h.53v-.53zm6.88 0v.529h.528v-.53zm1.587 0v.529h.529v-.53zm5.82 0v.529h.53v-.53zm3.705 0v.529h.529v-.53zm2.116 0v.529h.53v-.53zm2.646 0v.529h.53v-.53zm2.646 0v1.588h.53v-1.588zm7.408 0v.529h.53v-.53zm-43.391.529v.529h.529v-.53zm4.233 0v1.587h.53v-1.588zm4.233 0v.529h.53v-.53zm4.234 0v.529h.529v-.53zm2.116 0v.529h.53v-.53zm7.409 0v1.587h.529v-1.588zm4.233 0v.529h.53v-.53zm11.642 0v1.587h.529v-1.588zm3.704 0v.529h.529v-.53zm3.704 0v.529h.53v-.53zm2.117 0v.529h.529v-.53zm2.645 0v.529h.53v-.53zm-53.975.529v.53h.53v-.53zm1.588 0v.53h.53v-.53zm7.408 0v.53h.53v-.53zm6.35 0v.53h.53v-.53zm20.109 0v.53h.529v-.53zm7.408 0v.53h.53v-.53zm7.408 0v.53h.53v-.53zm4.763 0v.53h.529v-.53zM0 35.455v.528h.53v-.529zm2.117 0v.528h.529v-.529zm5.291 0v.528h.53v-.529zm3.704 0v.528h.53v-.529zm6.88 0v.528h.529v-.529zm4.233 0v.528h.53v-.529zm2.646 0v.528h.529v-.529zm1.587 0v.528h.53v-.529zm1.588 0v.528h.529v-.529zm5.291 0v.528h.53v-.529zm2.646 0v.528h.53v-.529zm2.117 0v.528h.53v-.529zm3.704 0v.528h.53v-.529zm3.704 0v1.587h.53v-1.588zm7.409 0v.528h.529v-.529zm4.233 0v.528h.53v-.529zm3.704 0v.528h.53v-.529zm-61.912.528v.53h.529v-.53zm10.583 0v.53h.53v-.53zm9.525 0v.53h.53v-.53zm13.23 0v.53h.528v-.53zm4.762 0v.53h.529v-.53zm7.408 0v.53h.53v-.53zm-43.392.53v.529h.53v-.53zm2.646 0v.529h.53v-.53zm1.588 0v.529h.529v-.53zm1.587 0v.529h.53v-.53zm10.054 0v.529h.53v-.53zm4.763 0v.529h.529v-.53zm2.116 0v.529h.53v-.53zm3.705 0v.529h.529v-.53zm3.704 0v.529h.529v-.53zm3.704 0v.529h.53v-.53zm4.233 0v.529h.53v-.53zm10.054 0v.529h.53v-.53zm0 .529h-.529v.529h.53zm2.117-.53v.53h.53v-.53zm5.292 0v.53h.529v-.53zm4.233 0v.53h.53v-.53zm-52.387.53v.529h.529v-.53zm2.645 0v.529h.53v-.53zm35.455 0v.529h.529v-.53zm.529.529v.529h.529v-.53zm5.82-.53v.53h.53v-.53zm5.821 0v.53h.53v-.53zm-58.208.53v.529h.53v-.53zm2.117 0v.529h.529v-.53zm3.704 0v.529h.53v-.53zm1.058 0v.529h.53v-.53zm4.763 0v.529h.529v-.53zm5.291 0v.529h.53v-.53zm13.759 0v.529h.529v-.53zm4.233 0v.529h.53v-.53zm5.292 0v.529h.529v-.53zm2.116 0v.529h.53v-.53zm.53.529v.53h.529v-.53zm-33.867 0v.53h.53v-.53zm5.82 0v.53h.53v-.53zm17.992 0v.53h.53v-.53zm5.821 0v.53h.53v-.53zm6.35 0v.53h.53v-.53zm0 .53h-.529v.528h.53zm5.821-.53v.53h.53v-.53zm2.646 0v.53h.53v-.53zm-5.82.53v.528h.528v-.529zm.528.528v.53h.53v-.53zm-.529 0h-.529v.53h.53zm4.763-.529v.53h.529v-.53zm-43.921.53v.528h.529v-.529zm4.233 0v.528h.53v-.529zm24.871 0v.528h.53v-.529zm2.646 0v.528h.529v-.529zm-29.634.528v.53h.53v-.53zm28.046 0v.53h.53v-.53zm4.763 0v.53h.529v-.53zm.529.53v.529h.53v-.53zm-.53 0h-.528v.529h.529z"/>
  <path fill="#ecf1c2" d="M52.917 14.817v.529h1.058v-.53zm-38.63 1.058v.53h1.059v-.53zm8.467 0v.53h1.058v-.53zm38.63 0v.53h1.058v-.53zM2.645 17.462v.53h1.058v-.53zm53.975.53v.529h1.058v-.53zm-26.459 1.587v.53h1.059v-.53zm-3.175 2.646v.53h1.059v-.53zm-17.462.53v.528h1.058v-.529zm9.525 1.057v.53h1.058v-.53zm28.575 0v.53h1.058v-.53zm9.525 1.059v.529h1.058v-.53zm-46.038 1.058v.53h1.059v-.53zm38.1 4.763v.529h1.059v-.53zm11.113.529v.529h1.058v-.53zm-20.638 1.058v.53h1.059v-.53zm13.759 1.058v.53h1.058v-.53zm-47.625.53v.529h1.058v-.53zm14.288-2.117h1.587v.529h-1.587zm9.525 2.646h1.587v.529h-1.587zM2.646 24.871h1.587v.529H2.646zm22.225.529h1.587v.529h-1.587z"/>
</svg>