<?xml version="1.0" encoding="UTF-8" standalone="no"?>
<!-- Created with Inkscape (http://www.inkscape.org/) -->

<svg
   width="128"
   height="128"
   viewBox="0 0 33.866664 33.866666"
   version="1.1"
   id="svg8"
   inkscape:version="1.4 (e7c3feb100, 2024-10-09)"
   sodipodi:docname="tui_icon_fill.svg"
   xml:space="preserve"
   inkscape:export-filename="tui_foreground.png"
   inkscape:export-xdpi="600"
   inkscape:export-ydpi="600"
   xmlns:inkscape="http://www.inkscape.org/namespaces/inkscape"
   xmlns:sodipodi="http://sodipodi.sourceforge.net/DTD/sodipodi-0.dtd"
   xmlns="http://www.w3.org/2000/svg"
   xmlns:svg="http://www.w3.org/2000/svg"
   xmlns:rdf="http://www.w3.org/1999/02/22-rdf-syntax-ns#"
   xmlns:cc="http://creativecommons.org/ns#"
   xmlns:dc="http://purl.org/dc/elements/1.1/"><defs
     id="defs2" /><sodipodi:namedview
     id="base"
     pagecolor="#ffffff"
     bordercolor="#666666"
     borderopacity="1.0"
     inkscape:pageopacity="0.0"
     inkscape:pageshadow="2"
     inkscape:zoom="3.6203867"
     inkscape:cx="57.314319"
     inkscape:cy="94.188833"
     inkscape:document-units="px"
     inkscape:current-layer="layer1"
     showgrid="true"
     units="px"
     borderlayer="true"
     inkscape:showpageshadow="false"
     inkscape:window-width="1180"
     inkscape:window-height="1000"
     inkscape:window-x="0"
     inkscape:window-y="0"
     inkscape:window-maximized="0"
     inkscape:snap-bbox="true"
     inkscape:object-nodes="false"
     inkscape:snap-others="false"
     fit-margin-top="0"
     fit-margin-left="0"
     fit-margin-right="0"
     fit-margin-bottom="0"
     inkscape:pagecheckerboard="false"
     inkscape:snap-bbox-midpoints="false"
     inkscape:snap-bbox-edge-midpoints="false"
     inkscape:bbox-nodes="true"
     inkscape:deskcolor="#d1d1d1"
     showguides="false"><inkscape:grid
       type="xygrid"
       id="grid815"
       spacingx="0.52916667"
       spacingy="0.52916667"
       empspacing="1"
       dotted="false"
       originx="0"
       originy="0"
       units="px" /></sodipodi:namedview><metadata
     id="metadata5"><rdf:RDF><cc:Work
         rdf:about=""><dc:format>image/svg+xml</dc:format><dc:type
           rdf:resource="http://purl.org/dc/dcmitype/StillImage" /></cc:Work></rdf:RDF></metadata><g
     inkscape:groupmode="layer"
     id="layer1"
     inkscape:label="Layer 1"><path
       id="rect973"
       style="fill:#ae877a;fill-opacity:1;stroke:none;stroke-width:2.83369;stroke-linecap:square"
       d="m 14.416563,22.250815 v 0.348475 h 0.348475 v -0.348475 z m 0,0.348475 h -0.348476 v 0.348475 h 0.348476 z m -0.348476,0.348475 h -0.348476 v 0.348476 h 0.348476 z m -0.348476,0.348476 h -0.348476 v 0.348477 h -0.348476 -0.348476 v 0.348475 h 0.348476 0.348476 0.348476 0.348476 v -0.348475 h -0.348476 z m 3.833233,-1.045426 v 0.348475 h 0.348476 v -0.348475 z m 0,0.348475 h -0.348476 v 0.348475 0.348476 h 0.348476 v -0.348476 z m -0.348476,0.696951 h -0.348475 v 0.348477 0.348475 h -0.348476 -0.348476 v 0.348476 h 0.348476 0.348476 0.348475 0.348476 v -0.348476 h -0.348476 v -0.348475 z" /><path
       id="path1142"
       style="fill:#375a79;fill-opacity:1;stroke:none;stroke-width:2.83369;stroke-linecap:square"
       d="m 13.371135,10.054163 v 0.348476 h -0.348476 -0.348476 v 0.348475 h -0.348475 v 0.348476 h -0.348476 v 0.348476 0.348475 0.348476 h -0.348475 v 0.348476 0.348476 0.348475 0.348477 H 11.28028 v 0.348475 0.348475 h 0.348477 v 0.348476 H 11.28028 10.931805 v 0.348477 0.348475 0.348476 0.348476 h -0.348476 v 0.348475 0.348476 0.348475 0.348477 0.348476 0.348475 h 0.348476 v 0.348476 0.348476 0.348475 h 0.348475 v 0.348476 0.348477 h 0.348477 v 0.348475 h 0.348475 v 0.348475 h 0.348476 v 0.348476 h 0.348475 v 0.348476 h 0.348476 0.348476 v 0.348476 h 0.348476 0.348476 v 0.348475 h 0.348476 0.348475 v 0.348477 h 0.348475 0.348477 0.348476 0.348475 0.348476 0.348476 0.348475 0.348476 0.348476 v -0.348477 h 0.348476 v -0.348475 h 0.348476 0.348475 0.348476 v -0.348476 h 0.348476 v -0.348476 h 0.348475 v -0.348476 h 0.348477 0.348476 0.348475 0.348475 0.348476 0.348476 v 0.348476 h 0.348476 0.348476 0.348476 0.348475 0.348476 v 0.348476 h 0.348476 0.348476 0.348475 0.348476 v -0.348476 h 0.348476 V 20.15996 H 25.219311 V 19.811485 H 24.870835 24.52236 v -0.348477 h -0.348476 -0.348476 v -0.348476 h -0.348476 v -0.348475 h -0.348475 -0.348476 v -0.348476 h 0.348476 V 18.069105 17.372154 H 22.779981 V 17.023677 H 22.431505 V 16.675202 H 22.083029 V 16.326726 H 21.734553 V 15.978251 H 21.386077 V 15.629775 H 21.037602 V 15.281299 H 20.689127 V 14.932824 H 20.340651 V 14.584347 H 19.992174 V 14.235871 H 19.643699 V 13.887396 H 19.295223 V 13.538921 H 18.946747 V 13.190444 H 18.598272 V 12.841969 H 18.249796 V 12.493493 12.145017 H 17.90132 V 11.796541 H 17.552844 V 11.448066 H 17.204368 V 11.09959 H 16.855893 V 10.751114 H 16.507417 V 10.402639 H 16.158941 15.810466 V 10.054163 H 15.46199 15.113513 14.765038 14.416563 14.068087 13.719611 Z" /><path
       id="rect991"
       style="fill:#4d547c;fill-opacity:1;stroke:none;stroke-width:2.83369;stroke-linecap:square"
       d="m 10.931805,12.493493 v 0.348476 h -0.348476 -0.348476 v 0.348475 h 0.348476 0.348476 v 0.348477 h 0.348475 0.348477 V 13.190444 12.841969 12.493493 H 11.28028 Z" /><path
       id="rect999"
       style="fill:#3b2610;fill-opacity:1;stroke-width:5.07782;stroke-linecap:round;stroke-linejoin:round"
       d="m 14.068087,12.145017 v 0.348476 0.348476 0.348475 h 0.348476 0.348475 v -0.348475 -0.348476 -0.348476 h -0.348475 z" /><rect
       style="fill:#d2e2e5;fill-opacity:1;stroke-width:5.07782;stroke-linecap:round;stroke-linejoin:round"
       id="rect1003"
       width="0.34847572"
       height="0.34847569"
       x="14.416564"
       y="12.493494" /><path
       id="rect926"
       style="fill:#23405a;fill-opacity:1;stroke:none;stroke-width:2.83369;stroke-linecap:square"
       d="m 15.46199,15.629775 v 0.348476 0.348475 h 0.348476 v 0.348476 h 0.348475 v 0.348475 h 0.348476 v 0.348477 h 0.348476 v 0.348476 h 0.348475 v 0.348475 h 0.348476 0.348476 0.348476 v 0.348476 h 0.348476 0.348475 0.348476 v 0.348476 h 0.348476 0.348475 0.348477 0.348476 0.348475 0.348475 0.348476 0.348476 0.348476 0.348476 V 18.417581 H 22.431505 22.083029 21.734553 21.386077 21.037602 20.689127 20.340651 V 18.069105 H 19.992174 19.643699 19.295223 V 17.72063 H 18.946747 18.598272 18.249796 V 17.372154 H 17.90132 17.552844 17.204368 v -0.348477 h -0.348475 v -0.348475 h -0.348476 v -0.348476 h -0.348476 v -0.348475 h -0.348475 v -0.348476 z" /><rect
       style="fill:#a3bfd1;fill-opacity:1;stroke:none;stroke-width:2.83369;stroke-linecap:square"
       id="rect1005"
       width="0.34847578"
       height="0.34847578"
       x="10.93181"
       y="14.235871" /><rect
       style="fill:#a3bfd1;fill-opacity:1;stroke:none;stroke-width:2.83369;stroke-linecap:square"
       id="rect1006"
       width="0.34847578"
       height="0.34847578"
       x="10.583336"
       y="14.235871" /><rect
       style="fill:#a3bfd1;fill-opacity:1;stroke:none;stroke-width:2.83369;stroke-linecap:square"
       id="rect1014"
       width="0.34847578"
       height="0.34847578"
       x="9.886384"
       y="14.932822" /><rect
       style="fill:#a3bfd1;fill-opacity:1;stroke:none;stroke-width:2.83369;stroke-linecap:square"
       id="rect1015"
       width="0.34847578"
       height="0.34847578"
       x="9.886384"
       y="14.584347" /><rect
       style="fill:#819eb1;fill-opacity:1;stroke:none;stroke-width:2.83369;stroke-linecap:square"
       id="rect1016"
       width="0.34847578"
       height="0.34847578"
       x="10.23486"
       y="14.235871" /><path
       id="rect924"
       style="fill:#35717b;fill-opacity:1;stroke:none;stroke-width:2.83369;stroke-linecap:square"
       d="m 20.340651,15.281299 v 0.348476 0.348476 h 0.348476 0.348475 v 0.348475 0.348476 h 0.348475 v 0.348475 h 0.348476 v 0.348477 h 0.348476 v 0.348476 h -0.348476 -0.348476 -0.348475 -0.348475 -0.348476 v -0.348476 h -0.348477 -0.348475 -0.348476 v 0.348476 0.348475 h 0.348476 0.348475 0.348477 v 0.348476 h 0.348476 0.348475 0.348475 0.348476 0.348476 0.348476 0.348476 0.348476 V 18.069105 17.72063 17.372154 h -0.348476 v -0.348477 h -0.348476 v -0.348475 h -0.348476 v -0.348476 h -0.348476 v -0.348475 h -0.348476 v -0.348476 h -0.348475 v -0.348476 h -0.348475 z" /><path
       id="rect1242"
       style="fill:#35717b;fill-opacity:1;stroke:none;stroke-width:2.83369;stroke-linecap:square"
       d="m 21.734553,18.766057 v 0.348475 h 0.348476 0.348476 0.348476 v 0.348476 h 0.348476 0.348475 v 0.348477 0.348475 h -0.348475 -0.348476 -0.348476 v -0.348475 h -0.348476 -0.348476 -0.348476 -0.348475 -0.348475 -0.348476 -0.348477 v 0.348475 0.348475 h 0.348477 0.348476 0.348475 0.348475 0.348476 0.348476 v 0.348476 h 0.348476 0.348476 0.348476 0.348475 0.348476 v 0.348476 h 0.348476 0.348476 0.348475 0.348476 v -0.348476 h 0.348476 V 20.508435 20.15996 H 25.219311 V 19.811485 H 24.870835 24.52236 v -0.348477 h -0.348476 -0.348476 v -0.348476 h -0.348476 v -0.348475 h -0.348475 -0.348476 -0.348476 -0.348476 z" /><path
       id="rect469"
       style="fill:#7b96ae;fill-opacity:1;stroke:none;stroke-width:2.83369;stroke-linecap:square"
       d="m 17.552844,12.841969 v 0.348475 h -0.348476 -0.348475 v 0.348477 h -0.348476 v 0.348475 h -0.348476 v 0.348475 H 15.810466 15.46199 v 0.348476 H 15.113513 14.765038 14.416563 14.068087 13.719611 13.371135 13.022659 12.674183 12.325708 11.977232 V 14.235871 H 11.628757 11.28028 v 0.348476 h 0.348477 v 0.348477 h 0.348475 0.348476 v 0.348475 h 0.348475 0.348476 0.348476 0.348476 0.348476 0.348476 0.348475 0.348475 0.348477 0.348476 v -0.348475 h 0.348475 v -0.348477 h 0.348476 v -0.348476 h 0.348476 0.348475 v -0.348475 h 0.348476 0.348476 v -0.348475 h 0.348476 0.348476 V 13.190444 12.841969 H 18.249796 17.90132 Z" /><path
       id="rect1314"
       style="fill:#a3bfd1;fill-opacity:1;stroke:none;stroke-width:2.83369;stroke-linecap:square"
       d="m 10.234853,14.235871 v 0.348476 H 9.8863784 v 0.348477 0.348475 0.348476 h 0.3484746 v 0.348476 h 0.348476 0.348476 v -0.348476 -0.348476 h 0.348475 v -0.348475 -0.348477 -0.348476 h -0.348475 -0.348476 z" /><path
       id="rect1007"
       style="fill:#a6c6dc;fill-opacity:1;stroke:none;stroke-width:2.83369;stroke-linecap:square"
       d="m 10.234853,14.584347 v 0.348477 0.348475 0.348476 h 0.348476 v -0.348476 h 0.348476 v -0.348475 h 0.348475 v -0.348477 h -0.348475 -0.348476 z" /><path
       id="rect1306"
       style="fill:#b6cad6;fill-opacity:1;stroke:none;stroke-width:2.83369;stroke-linecap:square"
       d="m 10.234853,14.235871 v 0.348476 h 0.348476 0.348476 0.348475 v -0.348476 h -0.348475 -0.348476 z m 0,0.348476 H 9.8863784 v 0.348477 0.348475 0.348476 h 0.3484746 v -0.348476 -0.348475 z" /></g></svg>
